HIERARCHY
ROOT root
{
	OFFSET	0	13.1	24.9
	CHANNELS 6  Xposition Yposition Zposition Xrotation Yrotation Zrotation
	JOINT spine_1
	{
		OFFSET	0	9.99999	0
		CHANNELS 3  Xrotation Yrotation Zrotation
		JOINT spine_2
		{
			OFFSET	0	112	-10
			CHANNELS 3  Xrotation Yrotation Zrotation
			JOINT spine_3
			{
				OFFSET	0	206.5	19.3
				CHANNELS 3  Xrotation Yrotation Zrotation
				JOINT spine_4
				{
					OFFSET	0	110.4	14.6
					CHANNELS 3  Xrotation Yrotation Zrotation
					JOINT neck_1
					{
						OFFSET	0	71.8	-50.3
						CHANNELS 3  Xrotation Yrotation Zrotation
						JOINT neck_2
						{
							OFFSET	0	86.2	-25.8
							CHANNELS 3  Xrotation Yrotation Zrotation
							JOINT head_ee
							{
								OFFSET	0	179.8	-8.7
								CHANNELS 3  Xrotation Yrotation Zrotation
								End Site
								{
									OFFSET	1	0	0
								}
							}
						}
					}
					JOINT left_clavicle
					{
						OFFSET	-43.2	22.4	-70.8
						CHANNELS 3  Xrotation Yrotation Zrotation
						JOINT left_shoulder
						{
							OFFSET	-93.9	-5.79999	48.7
							CHANNELS 3  Xrotation Yrotation Zrotation
							JOINT left_elbow
							{
								OFFSET	-291.4	-30.8	15.2
								CHANNELS 3  Xrotation Yrotation Zrotation
								JOINT left_lowarm_twist
								{
									OFFSET	-110.7	-3.89999	13.6
									CHANNELS 3  Xrotation Yrotation Zrotation
									JOINT left_hand
									{
										OFFSET	-110.7	-3.89999	13.6
										CHANNELS 3  Xrotation Yrotation Zrotation
										JOINT left_ee
										{
											OFFSET	-80.8	-5.10001	12.1
											CHANNELS 3  Xrotation Yrotation Zrotation
											End Site
											{
												OFFSET	1	0	0
											}
										}
									}
								}
							}
						}
					}
					JOINT right_clavicle
					{
						OFFSET	43.2	22.4	-70.8
						CHANNELS 3  Xrotation Yrotation Zrotation
						JOINT right_shoulder
						{
							OFFSET	93.9	-5.79999	48.7
							CHANNELS 3  Xrotation Yrotation Zrotation
							JOINT right_elbow
							{
								OFFSET	291.4	-30.8	15.2
								CHANNELS 3  Xrotation Yrotation Zrotation
								JOINT right_lowarm_twist
								{
									OFFSET	110.7	-3.89999	13.6
									CHANNELS 3  Xrotation Yrotation Zrotation
									JOINT right_hand
									{
										OFFSET	110.7	-3.89999	13.6
										CHANNELS 3  Xrotation Yrotation Zrotation
										JOINT right_ee
										{
											OFFSET	80.8	-5.10001	12.1
											CHANNELS 3  Xrotation Yrotation Zrotation
											End Site
											{
												OFFSET	1	0	0
											}
										}
									}
								}
							}
						}
					}
				}
			}
		}
	}
	JOINT left_hip
	{
		OFFSET	-82.8	-127.5	0.300001
		CHANNELS 3  Xrotation Yrotation Zrotation
		JOINT left_knee
		{
			OFFSET	-28.2	-396.7	2.2
			CHANNELS 3  Xrotation Yrotation Zrotation
			JOINT left_ankle
			{
				OFFSET	-11.7	-411.3	35.4
				CHANNELS 3  Xrotation Yrotation Zrotation
				JOINT left_toes
				{
					OFFSET	0	-60	-88.6
					CHANNELS 3  Xrotation Yrotation Zrotation
					JOINT left_foot_ee
					{
						OFFSET	-22.5	-16.5	-42.2
						CHANNELS 3  Xrotation Yrotation Zrotation
						End Site
						{
							OFFSET	1	0	0
						}
					}
				}
			}
		}
	}
	JOINT right_hip
	{
		OFFSET	82.8	-127.5	0.300001
		CHANNELS 3  Xrotation Yrotation Zrotation
		JOINT right_knee
		{
			OFFSET	28.2	-396.7	2.2
			CHANNELS 3  Xrotation Yrotation Zrotation
			JOINT right_ankle
			{
				OFFSET	11.7	-411.3	35.4
				CHANNELS 3  Xrotation Yrotation Zrotation
				JOINT right_toes
				{
					OFFSET	0	-60	-88.6
					CHANNELS 3  Xrotation Yrotation Zrotation
					JOINT right_foot_ee
					{
						OFFSET	22.5	-16.5	-42.2
						CHANNELS 3  Xrotation Yrotation Zrotation
						End Site
						{
							OFFSET	1	0	0
						}
					}
				}
			}
		}
	}
}
MOTION
Frames: 8
Frame Time: 0.02
2671.25 745.844 -705.72 163.967 -70.7909 174.824 0.550673 -0.543385 -3.80702 0.558685 -0.300216 -3.83383 0.581722 0.474023 -3.81626 0.561428 -0.134173 -3.84321 -13.0957 12.179 7.70941 -13.1494 18.3862 11.0 -0.0 0.0 -0.0 10.8262 9.85806 20.4335 -14.2323 -30.1902 47.1641 1.48055 -36.2548 0.484725 -27.8744 -1.76331 3.06102 -2.94381 12.3251 -13.6481 -0.0 0.0 -0.0 2.04331 1.6059 -3.80081 -13.1899 31.9352 -62.1146 0.397619 11.143 -0.0387876 -18.0995 0.976395 -2.08867 0.604997 -26.9483 -14.052 0.0 0.0 0.0 -6.06178 6.38807 -9.67496 7.36906 -0.372783 -1.06812 9.38365 -4.86538 -1.37059 25.6143 -0.0 -0.0 -0.0 0.0 -0.0 15.5026 6.63041 -12.7381 -45.9815 0.890469 -6.81447 -17.752 13.4051 -2.87817 -24.6452 0.0 0.0 0.0 0.0 0.0 
2692.09 743.805 -708.871 163.483 -72.6241 174.34 0.699205 -0.783677 -3.93735 0.707671 -0.531748 -3.97915 0.747742 0.264187 -4.00578 0.725548 -0.371248 -3.99729 -13.9156 12.1727 6.54144 -14.073 19.2465 10.0504 -0.0 0.0 -0.0 10.7047 10.4882 20.122 -13.9872 -32.4155 46.904 1.60915 -38.5563 0.562859 -30.7664 -2.02689 3.32178 -3.26248 12.156 -15.8303 -0.0 0.0 -0.0 1.29509 1.01211 -2.39707 -16.0851 30.6889 -62.3544 0.414373 11.6001 -0.042091 -16.9417 0.894529 -1.96508 0.63081 -28.0767 -14.5539 0.0 0.0 0.0 -7.05197 7.44988 -8.81614 7.52109 -0.381913 -1.08963 8.50067 -3.11014 -1.23751 25.6085 -0.0 -0.0 -0.0 0.0 -0.0 20.6316 10.5863 -14.9266 -46.3982 0.923147 -6.86965 -21.8952 13.5253 -3.55684 -25.7516 0.0 0.0 0.0 0.0 0.0 
2707.91 742.268 -710.995 163.486 -73.1836 174.118 0.882736 -0.870188 -4.16401 0.892178 -0.603699 -4.21082 0.939614 0.22502 -4.24786 0.914721 -0.44806 -4.23018 -12.3852 11.9409 5.72245 -12.5076 19.0555 8.94293 -0.0 0.0 -0.0 10.9065 11.0643 20.4244 -11.8889 -31.5568 47.5856 1.69035 -39.9378 0.614238 -32.7353 -2.21375 3.49161 -3.70062 10.8924 -19.4839 -0.0 0.0 -0.0 0.316936 -0.174117 -0.630669 -16.2297 30.008 -63.1135 0.349865 9.83261 -0.0300944 -16.3171 0.851412 -1.89773 0.584553 -29.0983 -14.6108 0.0 0.0 0.0 -8.59265 8.69691 -7.5512 7.56199 -0.38438 -1.09541 9.10946 -3.60398 -1.32556 24.2689 -0.0 -0.0 -0.0 0.0 -0.0 23.7197 10.8763 -15.0844 -44.1886 0.754517 -6.57445 -23.1595 11.5542 -3.7121 -30.1746 0.0 0.0 0.0 0.0 0.0 
2723.78 740.77 -717.472 163.517 -72.2435 174.356 0.923924 -0.692752 -4.29066 0.934066 -0.418584 -4.32596 0.968493 0.427341 -4.3251 0.942492 -0.260429 -4.33833 -14.0534 12.0311 6.38676 -14.2175 19.0927 9.88402 -0.0 0.0 -0.0 10.9074 11.8527 20.3149 -10.7647 -33.0472 48.6274 1.7644 -41.1508 0.662375 -35.29 -2.46475 3.70228 -3.7784 9.31869 -20.9321 -0.0 0.0 -0.0 0.111837 0.246549 -0.186734 -17.4822 28.8061 -62.6578 0.23823 6.73064 -0.0140089 -14.523 0.731694 -1.70176 0.737527 -28.6793 -15.3408 0.0 0.0 0.0 -9.07499 10.6849 -7.23845 7.19038 -0.362126 -1.04281 8.35632 -1.80093 -1.212 24.7096 -0.0 -0.0 -0.0 0.0 -0.0 23.9996 10.0741 -13.8499 -37.281 0.302912 -5.61387 -22.832 12.4775 -3.68205 -30.8239 0.0 0.0 0.0 0.0 0.0 
2734.8 740.356 -722.802 164.385 -72.2167 175.046 1.06744 -0.548781 -4.4874 1.0786 -0.262422 -4.51316 1.10163 0.606944 -4.47992 1.07365 -0.107444 -4.51949 -13.5333 12.7253 7.37022 -13.6552 19.727 10.9337 -0.0 0.0 -0.0 10.7157 13.1074 19.7799 -7.83094 -33.925 51.5881 1.89199 -43.1399 0.748001 -39.8356 -2.9337 4.04883 -3.91402 11.7309 -20.4432 -0.0 0.0 -0.0 -0.0246356 0.657052 0.126038 -19.3097 27.1883 -62.1949 0.217646 6.15375 -0.0116992 -14.0477 0.701017 -1.64924 0.532011 -29.1514 -14.3344 0.0 0.0 0.0 -8.9215 10.9845 -6.70378 5.92369 -0.288853 -0.86246 9.47858 -5.58771 -1.38805 24.5017 -0.0 -0.0 -0.0 0.0 -0.0 24.5836 12.8736 -12.6862 -32.5336 0.0612852 -4.92593 -18.868 14.227 -3.07891 -35.8002 0.0 0.0 0.0 0.0 0.0 
2743.72 739.924 -726.522 164.946 -71.8784 175.505 0.865573 -0.4739 -4.69427 0.877811 -0.174569 -4.71486 0.895243 0.749042 -4.65838 0.864973 0.00478986 -4.71808 -13.1961 12.4481 6.14078 -13.3584 19.8972 9.63644 -0.0 0.0 -0.0 10.6016 13.6979 19.4864 -6.04918 -34.8105 52.7537 1.95057 -44.012 0.788382 -43.1476 -3.29196 4.27745 -3.92998 10.081 -21.5359 -0.0 0.0 -0.0 -0.128174 1.07513 0.377611 -20.3084 27.5831 -61.4361 0.210559 5.95482 -0.0109516 -13.212 0.648134 -1.55626 0.448559 -29.1522 -13.8707 0.0 0.0 0.0 -8.78953 12.2001 -6.09885 4.96484 -0.236055 -0.724909 11.0359 -6.20886 -1.61091 24.2953 -0.0 -0.0 -0.0 0.0 -0.0 24.9184 12.4797 -11.9528 -25.6149 -0.186898 -3.89377 -13.8165 14.609 -2.25327 -36.832 0.0 0.0 0.0 0.0 0.0 
2753.33 737.215 -727.852 166.139 -73.2275 176.583 0.826332 -0.656076 -4.68107 0.838447 -0.357217 -4.71323 0.871333 0.570953 -4.69219 0.840666 -0.176401 -4.72343 -13.1306 12.9043 6.84893 -13.2747 20.317 10.4313 -0.0 0.0 -0.0 10.6935 14.6172 19.5112 -3.66655 -34.5982 53.6729 2.10968 -46.2569 0.901177 -45.4593 -3.54957 4.42461 -3.824 12.0421 -19.6464 -0.0 0.0 -0.0 -0.104029 0.930931 0.313162 -20.9406 25.2052 -61.2246 0.235719 6.66032 -0.013716 -11.7651 0.559818 -1.39354 0.67729 -27.3169 -14.5812 0.0 0.0 0.0 -8.812 12.1444 -5.95111 5.54109 -0.267509 -0.807679 11.8222 -5.2863 -1.71375 23.7526 -0.0 -0.0 -0.0 0.0 -0.0 25.5982 13.2166 -11.6386 -18.7792 -0.308168 -2.85247 -9.11766 14.1983 -1.47358 -39.277 0.0 0.0 0.0 0.0 0.0 
2761.57 734.401 -729.699 167.536 -72.8962 177.596 0.758338 -0.455683 -4.73203 0.770777 -0.153995 -4.75138 0.786971 0.785325 -4.6887 0.756308 0.0358474 -4.75374 -13.5532 13.472 7.93873 -13.6829 20.8105 11.7087 -0.0 0.0 -0.0 10.69 15.1823 19.4158 -1.87752 -34.786 55.0336 2.20611 -47.5338 0.971584 -47.132 -3.73955 4.52456 -3.99696 11.4767 -21.1633 -0.0 0.0 -0.0 0.321851 0.178108 -0.600178 -22.265 24.4289 -60.202 0.255893 7.22456 -0.0161545 -11.4801 0.54291 -1.36123 0.590892 -28.1752 -14.3593 0.0 0.0 0.0 -8.55379 12.1589 -5.43307 4.11652 -0.191275 -0.602506 12.943 -4.90931 -1.86501 23.7906 -0.0 -0.0 -0.0 0.0 -0.0 25.4389 13.5974 -11.3772 -12.3117 -0.308013 -1.86069 -9.48994 13.8351 -1.53056 -40.1923 0.0 0.0 0.0 0.0 0.0 
